HIERARCHY
ROOT Hips
{
  OFFSET 5.80788e-005 67.184 3.4734
  CHANNELS 6 Xposition Yposition Zposition Zrotation Xrotation Yrotation
  JOINT Chest
  {
    OFFSET 0 8.7983 -4.7612
    CHANNELS 6 Xposition Yposition Zposition Zrotation Xrotation Yrotation
    JOINT Chest2
    {
      OFFSET 0 8.0291 0.4195
      CHANNELS 6 Xposition Yposition Zposition Zrotation Xrotation Yrotation
      JOINT Chest3
      {
        OFFSET 0 9.9351 -2.2114
        CHANNELS 6 Xposition Yposition Zposition Zrotation Xrotation Yrotation
        JOINT Neck
        {
          OFFSET 0 22.3885 -0.4656
          CHANNELS 6 Xposition Yposition Zposition Zrotation Xrotation Yrotation
          JOINT Head
          {
            OFFSET -0.0001 12.643 3.4389
            CHANNELS 6 Xposition Yposition Zposition Zrotation Xrotation Yrotation
            End Site
            {
              OFFSET 0.0001 17.6655 0.5274
            }
          }
        }
        JOINT LeftCollar
        {
          OFFSET 2.2603 21.606 7.4023
          CHANNELS 6 Xposition Yposition Zposition Zrotation Xrotation Yrotation
          JOINT LeftShoulder
          {
            OFFSET 13.5163 -1.1332 -5.0146
            CHANNELS 6 Xposition Yposition Zposition Zrotation Xrotation Yrotation
            JOINT LeftElbow
            {
              OFFSET -0.0995 -28.05 -0.2431
              CHANNELS 6 Xposition Yposition Zposition Zrotation Xrotation Yrotation
              JOINT LeftWrist
              {
                OFFSET 0.0679 -23.3996 -0.1402
                CHANNELS 6 Xposition Yposition Zposition Zrotation Xrotation Yrotation
                JOINT LeftFinger1
                {
                  OFFSET 0.7932 -9.069 2.5189
                  CHANNELS 6 Xposition Yposition Zposition Zrotation Xrotation Yrotation
                  JOINT LeftFinger11
                  {
                    OFFSET -0.8272 -3.3923 0.5977
                    CHANNELS 6 Xposition Yposition Zposition Zrotation Xrotation Yrotation
                    JOINT LeftFinger12
                    {
                      OFFSET -0.5649 -2.3158 0.4082
                      CHANNELS 6 Xposition Yposition Zposition Zrotation Xrotation Yrotation
                      End Site
                      {
                        OFFSET -0.4919 -1.6479 0.2673
                      }
                    }
                  }
                }
                JOINT LeftFinger2
                {
                  OFFSET 0.9159 -9.2044 0.2193
                  CHANNELS 6 Xposition Yposition Zposition Zrotation Xrotation Yrotation
                  JOINT LeftFinger21
                  {
                    OFFSET 0.0117 -4.1944 -0.0248
                    CHANNELS 6 Xposition Yposition Zposition Zrotation Xrotation Yrotation
                    JOINT LeftFinger22
                    {
                      OFFSET 0.0071 -2.3249 -0.0142
                      CHANNELS 6 Xposition Yposition Zposition Zrotation Xrotation Yrotation
                      End Site
                      {
                        OFFSET -0.1475 -2.0882 0.0028
                      }
                    }
                  }
                }
                JOINT LeftFinger3
                {
                  OFFSET 0.6113 -8.7231 -2.0637
                  CHANNELS 6 Xposition Yposition Zposition Zrotation Xrotation Yrotation
                  JOINT LeftFinger31
                  {
                    OFFSET -0.1927 -3.8059 -0.2383
                    CHANNELS 6 Xposition Yposition Zposition Zrotation Xrotation Yrotation
                    JOINT LeftFinger32
                    {
                      OFFSET -0.1091 -2.1688 -0.1362
                      CHANNELS 6 Xposition Yposition Zposition Zrotation Xrotation Yrotation
                      End Site
                      {
                        OFFSET -0.2358 -1.9176 -0.0906
                      }
                    }
                  }
                }
                JOINT LeftFinger4
                {
                  OFFSET -0.6151 -8.0947 -3.5641
                  CHANNELS 6 Xposition Yposition Zposition Zrotation Xrotation Yrotation
                  JOINT LeftFinger41
                  {
                    OFFSET -0.4882 -2.341 -0.6462
                    CHANNELS 6 Xposition Yposition Zposition Zrotation Xrotation Yrotation
                    JOINT LeftFinger42
                    {
                      OFFSET -0.3575 -1.7167 -0.4742
                      CHANNELS 6 Xposition Yposition Zposition Zrotation Xrotation Yrotation
                      End Site
                      {
                        OFFSET -0.4187 -1.5237 -0.3496
                      }
                    }
                  }
                }
                JOINT LeftFinger0
                {
                  OFFSET -1.42 -1.8761 1.4223
                  CHANNELS 6 Xposition Yposition Zposition Zrotation Xrotation Yrotation
                  JOINT LeftFinger01
                  {
                    OFFSET -1.1471 -3.4929 2.6334
                    CHANNELS 6 Xposition Yposition Zposition Zrotation Xrotation Yrotation
                    JOINT LeftFinger02
                    {
                      OFFSET -0.823 -2.3 1.6571
                      CHANNELS 6 Xposition Yposition Zposition Zrotation Xrotation Yrotation
                      End Site
                      {
                        OFFSET -0.5822 -1.6914 1.1582
                      }
                    }
                  }
                }
              }
            }
          }
        }
        JOINT RightCollar
        {
          OFFSET -2.2603 21.606 7.4023
          CHANNELS 6 Xposition Yposition Zposition Zrotation Xrotation Yrotation
          JOINT RightShoulder
          {
            OFFSET -13.5187 -1.1334 -5.0155
            CHANNELS 6 Xposition Yposition Zposition Zrotation Xrotation Yrotation
            JOINT RightElbow
            {
              OFFSET 0.0994 -28.0499 -0.2431
              CHANNELS 6 Xposition Yposition Zposition Zrotation Xrotation Yrotation
              JOINT RightWrist
              {
                OFFSET -0.0679 -23.3996 -0.1402
                CHANNELS 6 Xposition Yposition Zposition Zrotation Xrotation Yrotation
                JOINT RightFinger1
                {
                  OFFSET -0.7932 -9.0691 2.5189
                  CHANNELS 6 Xposition Yposition Zposition Zrotation Xrotation Yrotation
                  JOINT RightFinger11
                  {
                    OFFSET 0.8272 -3.3923 0.5977
                    CHANNELS 6 Xposition Yposition Zposition Zrotation Xrotation Yrotation
                    JOINT RightFinger12
                    {
                      OFFSET 0.565 -2.3158 0.4082
                      CHANNELS 6 Xposition Yposition Zposition Zrotation Xrotation Yrotation
                      End Site
                      {
                        OFFSET 0.4919 -1.6479 0.2673
                      }
                    }
                  }
                }
                JOINT RightFinger2
                {
                  OFFSET -0.916 -9.2044 0.2193
                  CHANNELS 6 Xposition Yposition Zposition Zrotation Xrotation Yrotation
                  JOINT RightFinger21
                  {
                    OFFSET -0.0117 -4.1944 -0.0248
                    CHANNELS 6 Xposition Yposition Zposition Zrotation Xrotation Yrotation
                    JOINT RightFinger22
                    {
                      OFFSET -0.0071 -2.3249 -0.0142
                      CHANNELS 6 Xposition Yposition Zposition Zrotation Xrotation Yrotation
                      End Site
                      {
                        OFFSET 0.1475 -2.0882 0.0028
                      }
                    }
                  }
                }
                JOINT RightFinger3
                {
                  OFFSET -0.6113 -8.7231 -2.0637
                  CHANNELS 6 Xposition Yposition Zposition Zrotation Xrotation Yrotation
                  JOINT RightFinger31
                  {
                    OFFSET 0.1927 -3.8059 -0.2383
                    CHANNELS 6 Xposition Yposition Zposition Zrotation Xrotation Yrotation
                    JOINT RightFinger32
                    {
                      OFFSET 0.1091 -2.1688 -0.1362
                      CHANNELS 6 Xposition Yposition Zposition Zrotation Xrotation Yrotation
                      End Site
                      {
                        OFFSET 0.2358 -1.9176 -0.0906
                      }
                    }
                  }
                }
                JOINT RightFinger4
                {
                  OFFSET 0.6151 -8.0947 -3.564
                  CHANNELS 6 Xposition Yposition Zposition Zrotation Xrotation Yrotation
                  JOINT RightFinger41
                  {
                    OFFSET 0.4882 -2.341 -0.6462
                    CHANNELS 6 Xposition Yposition Zposition Zrotation Xrotation Yrotation
                    JOINT RightFinger42
                    {
                      OFFSET 0.3574 -1.7166 -0.4742
                      CHANNELS 6 Xposition Yposition Zposition Zrotation Xrotation Yrotation
                      End Site
                      {
                        OFFSET 0.4187 -1.5237 -0.3496
                      }
                    }
                  }
                }
                JOINT RightFinger0
                {
                  OFFSET 1.4199 -1.8761 1.4221
                  CHANNELS 6 Xposition Yposition Zposition Zrotation Xrotation Yrotation
                  JOINT RightFinger01
                  {
                    OFFSET 1.1472 -3.4929 2.6336
                    CHANNELS 6 Xposition Yposition Zposition Zrotation Xrotation Yrotation
                    JOINT RightFinger02
                    {
                      OFFSET 0.8229 -2.3 1.6571
                      CHANNELS 6 Xposition Yposition Zposition Zrotation Xrotation Yrotation
                      End Site
                      {
                        OFFSET 0.5822 -1.6914 1.1582
                      }
                    }
                  }
                }
              }
            }
          }
        }
      }
    }
  }
  JOINT RightHip
  {
    OFFSET -9.412 3.9771 -0.7758
    CHANNELS 6 Xposition Yposition Zposition Zrotation Xrotation Yrotation
    JOINT RightKnee
    {
      OFFSET -0.7531 -40.938 0
      CHANNELS 6 Xposition Yposition Zposition Zrotation Xrotation Yrotation
      JOINT RightAnkle
      {
        OFFSET 0 -40.1986 0
        CHANNELS 6 Xposition Yposition Zposition Zrotation Xrotation Yrotation
        JOINT RightToe
        {
          OFFSET 0 -4.4182 9.239
          CHANNELS 6 Xposition Yposition Zposition Zrotation Xrotation Yrotation
          End Site
          {
            OFFSET 0 0 6.1981
          }
        }
      }
    }
  }
  JOINT LeftHip
  {
    OFFSET 9.4119 3.9773 -0.7758
    CHANNELS 6 Xposition Yposition Zposition Zrotation Xrotation Yrotation
    JOINT LeftKnee
    {
      OFFSET 0.7532 -40.9383 0
      CHANNELS 6 Xposition Yposition Zposition Zrotation Xrotation Yrotation
      JOINT LeftAnkle
      {
        OFFSET 0 -40.1986 0
        CHANNELS 6 Xposition Yposition Zposition Zrotation Xrotation Yrotation
        JOINT LeftToe
        {
          OFFSET 0 -4.4182 9.239
          CHANNELS 6 Xposition Yposition Zposition Zrotation Xrotation Yrotation
          End Site
          {
            OFFSET 0 0 6.1981
          }
        }
      }
    }
  }
}
MOTION
Frames:	4
Frame Time:	0.0333333
5.80788e-005 67.184 3.4734 0 0 -0 0 8.7983 -4.7612 0 0 -0 0 8.0291 0.4195 0 0 -0 0 9.9351 -2.2114 0 0 -0 0 22.3885 -0.4656 0 0 -0 -0.0001 12.643 3.4389 0 0 -0 2.2603 21.606 7.4023 0 0 -12.5014 13.5163 -1.1332 -5.0146 88.1196 14.2451 10.6914 -0.0995 -28.05 -0.2431 -0.00160068 -0.00239207 0.000740045 0.0679 -23.3996 -0.1402 -8.4365e-005 7.00714e-005 -9.52055e-007 0.7932 -9.069 2.5189 9.93923e-017 -1.98785e-016 -1.59028e-015 -0.8272 -3.3923 0.5977 9.93923e-017 -5.96354e-016 -1.59028e-015 -0.5649 -2.3158 0.4082 -9.93923e-017 -5.96354e-016 -1.59028e-015 0.9159 -9.2044 0.2193 9.93923e-017 -1.98785e-016 -1.59028e-015 0.0117 -4.1944 -0.0248 -0.0128176 0.00232552 8.52707e-005 0.0071 -2.3249 -0.0142 9.93923e-017 5.96354e-016 -0 0.6113 -8.7231 -2.0637 9.93923e-017 -1.98785e-016 -1.59028e-015 -0.1927 -3.8059 -0.2383 -0.0160551 0.00299681 0.000857156 -0.1091 -2.1688 -0.1362 -2.48481e-016 0 3.18055e-015 -0.6151 -8.0947 -3.5641 9.93923e-017 -1.98785e-016 -1.59028e-015 -0.4882 -2.341 -0.6462 -0.0125865 0.0031206 0.00282719 -0.3575 -1.7167 -0.4742 0 1.98785e-016 -0 -1.42 -1.8761 1.4223 9.93923e-017 -1.98785e-016 -1.59028e-015 -1.1471 -3.4929 2.6334 9.93923e-017 -5.96354e-016 -1.59028e-015 -0.823 -2.3 1.6571 -9.93923e-017 -5.96354e-016 -1.59028e-015 -2.2603 21.606 7.4023 -0.865644 0.16582 7.03859 -13.5187 -1.1334 -5.0155 -88.0329 10.2057 -10.5567 0.0994 -28.0499 -0.2431 0.0015593 -0.00248883 -0.000788628 -0.0679 -23.3996 -0.1402 7.87605e-005 4.10553e-005 1.24965e-005 -0.7932 -9.0691 2.5189 -3.97569e-016 -7.95139e-016 3.18055e-015 0.8272 -3.3923 0.5977 -1.98785e-016 -3.97569e-016 3.18055e-015 0.565 -2.3158 0.4082 -1.98785e-016 0 3.18055e-015 -0.916 -9.2044 0.2193 -3.97569e-016 -7.95139e-016 3.18055e-015 -0.0117 -4.1944 -0.0248 0.0129473 0.00231697 -8.70038e-005 -0.0071 -2.3249 -0.0142 9.93923e-017 -7.95139e-016 1.59028e-015 -0.6113 -8.7231 -2.0637 -3.97569e-016 -7.95139e-016 3.18055e-015 0.1927 -3.8059 -0.2383 0.0163314 0.00303369 -0.000872333 0.1091 -2.1688 -0.1362 3.97569e-016 7.95139e-016 -3.18055e-015 0.6151 -8.0947 -3.564 -3.97569e-016 -7.95139e-016 3.18055e-015 0.4882 -2.341 -0.6462 0.0145763 0.00367772 -0.00326275 0.3574 -1.7166 -0.4742 9.93923e-017 -3.97569e-016 -0 1.4199 -1.8761 1.4221 -3.97569e-016 -7.95139e-016 3.18055e-015 1.1472 -3.4929 2.6336 -1.98785e-016 -3.97569e-016 3.18055e-015 0.8229 -2.3 1.6571 -1.98785e-016 0 3.18055e-015 -9.412 3.9771 -0.7758 3.42485 1.36937 -0.0640303 -0.7531 -40.938 0 0.000136572 0.69354 0.00145564 1.77636e-015 -40.1986 -1.11022e-016 -3.42573 -2.06297 -0.0607933 8.88178e-016 -4.4182 9.239 -3.19502e-024 0 -1.48106e-024 9.4119 3.9773 -0.7758 -3.42498 1.36123 0.0639712 0.7532 -40.9383 2.22045e-016 -6.769e-005 0.712612 -0.0012277 8.88179e-016 -40.1986 0 3.42582 -2.07388 0.0612819 -8.88178e-016 -4.4182 9.239 2.55305e-023 0 -2.31416e-026 
29.6266 18.9634 8.83335 2.70313e-008 -66.6681 -3.32665e-008 0 8.7983 -4.7612 -1.38755 11.6904 -1.01257 -3.55271e-015 8.0291 0.4195 -2.64429 23.4009 -1.78633 3.55271e-015 9.9351 -2.2114 -2.64429 23.4008 -1.78633 0 22.3885 -0.4656 4.1693e-005 14.1062 4.45453e-005 -0.0001 12.643 3.4389 4.28117e-007 4.51471 -3.05442e-006 2.2603 21.606 7.4023 -9.61757 2.32112 -14.0668 13.5163 -1.1332 -5.0146 40.0999 -30.976 29.2448 -0.0995 -28.05 -0.2431 -2.30499 -3.97582 -13.274 0.0679 -23.3996 -0.1402 1.30031 20.8675 -4.03832 0.7932 -9.069 2.5189 -1.3158e-005 4.30414e-006 6.14487e-006 -0.8272 -3.3923 0.5977 -6.36111e-015 0 1.59028e-015 -0.5649 -2.3158 0.4082 -2.38542e-015 -6.36111e-015 -2.38542e-015 0.9159 -9.2044 0.2193 -1.3158e-005 4.30414e-006 6.14487e-006 0.0117 -4.1944 -0.0248 -0.0128689 0.00234197 8.66793e-005 0.0071 -2.3249 -0.0142 -7.95139e-016 3.18055e-015 -4.77083e-015 0.6113 -8.7231 -2.0637 -1.3158e-005 4.30414e-006 6.14487e-006 -0.1927 -3.8059 -0.2383 -0.0160213 0.00298054 0.000854191 -0.1091 -2.1688 -0.1362 2.65215e-007 1.31512e-006 1.18316e-006 -0.6151 -8.0947 -3.5641 -1.3158e-005 4.30414e-006 6.14487e-006 -0.4882 -2.341 -0.6462 -0.0125344 0.00310506 0.0028141 -0.3575 -1.7167 -0.4742 1.67111e-006 5.95501e-006 4.18252e-007 -1.42 -1.8761 1.4223 -1.3158e-005 4.30414e-006 6.14487e-006 -1.1471 -3.4929 2.6334 -6.36111e-015 0 1.59028e-015 -0.823 -2.3 1.6571 -2.38542e-015 -6.36111e-015 -2.38542e-015 -2.2603 21.606 7.4023 -1.12196 -7.06566 10.1506 -13.5187 -1.1334 -5.0155 -36.3913 -7.35867 9.33944 0.0994 -28.0499 -0.2431 70.674 -34.6446 28.2834 -0.0679 -23.3996 -0.1402 -26.5433 -9.89034 11.7791 -0.7932 -9.0691 2.5189 3.18055e-015 1.59028e-015 -0 0.8272 -3.3923 0.5977 -6.36111e-015 3.18055e-015 3.97569e-015 0.565 -2.3158 0.4082 -2.20695e-031 3.18055e-015 3.97569e-015 -0.916 -9.2044 0.2193 3.18055e-015 1.59028e-015 -0 -0.0117 -4.1944 -0.0248 0.0129502 0.0023129 -8.87419e-005 -0.0071 -2.3249 -0.0142 -1.54487e-031 1.59028e-015 5.56597e-015 -0.6113 -8.7231 -2.0637 3.18055e-015 1.59028e-015 -0 0.1927 -3.8059 -0.2383 0.0163023 0.00302242 -0.000872576 0.1091 -2.1688 -0.1362 3.23221e-006 -6.17302e-006 -6.55896e-007 0.6151 -8.0947 -3.564 3.18055e-015 1.59028e-015 -0 0.4882 -2.341 -0.6462 0.0145646 0.00366424 -0.00325878 0.3574 -1.7166 -0.4742 -3.18055e-015 1.27222e-014 3.18055e-015 1.4199 -1.8761 1.4221 3.18055e-015 1.59028e-015 -0 1.1472 -3.4929 2.6336 -6.36111e-015 3.18055e-015 3.97569e-015 0.8229 -2.3 1.6571 -2.20695e-031 3.18055e-015 3.97569e-015 -9.412 3.9771 -0.7758 -35.2611 -31.731 -1.63368 -0.7531 -40.938 3.55271e-015 2.71472 78.4961 -4.56842 0 -40.1986 0 -23.0303 16.5727 8.63327 0 -4.4182 9.239 2.86653e-006 -8.5999e-008 -3.02839e-007 9.4119 3.9773 -0.7758 33.146 -6.12136 -3.4745 0.7532 -40.9383 0 -29.3048 27.5626 14.3963 0 -40.1986 0 16.5606 27.5482 9.45013 0 -4.4182 9.239 1.61757e-006 1.58433e-007 -5.09396e-007 
43.059 -2.02553 7.64568 -180 -83.3313 -180 0 8.7983 -4.7612 -2.21536 16.936 -1.31047 0 8.0291 0.4195 -4.30816 33.9085 -2.04238 0 9.9351 -2.2114 -4.30813 33.9082 -2.04238 0 22.3885 -0.4656 0.000172569 20.2697 0.000167087 -0.0001 12.643 3.4389 -1.85068e-007 6.18039 -8.33348e-007 2.2603 21.606 7.4023 -13.7753 3.17903 -14.796 13.5163 -1.1332 -5.0146 24.5235 -53.0812 40.0794 -0.0995 -28.05 -0.2431 -3.33799 -5.8008 -19.2367 0.0679 -23.3996 -0.1402 2.12763 30.1746 -6.35508 0.7932 -9.069 2.5189 -0 -3.18055e-015 -0 -0.8272 -3.3923 0.5977 4.894e-006 5.50566e-006 -5.1565e-007 -0.5649 -2.3158 0.4082 -1.59028e-015 3.18055e-015 -3.18055e-015 0.9159 -9.2044 0.2193 -0 -3.18055e-015 -0 0.0117 -4.1944 -0.0248 -0.0128178 0.00232834 9.22243e-005 0.0071 -2.3249 -0.0142 -3.18055e-015 9.54166e-015 1.59028e-015 0.6113 -8.7231 -2.0637 -0 -3.18055e-015 -0 -0.1927 -3.8059 -0.2383 -0.0160173 0.00299872 0.000850351 -0.1091 -2.1688 -0.1362 -3.45044e-006 -1.50774e-005 -3.97769e-006 -0.6151 -8.0947 -3.5641 -0 -3.18055e-015 -0 -0.4882 -2.341 -0.6462 -0.012578 0.00311918 0.00282482 -0.3575 -1.7167 -0.4742 1.59028e-015 -1.27222e-014 1.59028e-015 -1.42 -1.8761 1.4223 -0 -3.18055e-015 -0 -1.1471 -3.4929 2.6334 4.894e-006 5.50566e-006 -5.1565e-007 -0.823 -2.3 1.6571 -1.59028e-015 3.18055e-015 -3.18055e-015 -2.2603 21.606 7.4023 -0.973332 -10.3034 11.5908 -13.5187 -1.1334 -5.0155 -13.9446 -16.699 19.1452 0.0994 -28.0499 -0.2431 97.0405 -53.5857 35.7019 -0.0679 -23.3996 -0.1402 -38.7771 -14.5787 16.4433 -0.7932 -9.0691 2.5189 -5.09296e-006 6.60979e-006 -9.92999e-006 0.8272 -3.3923 0.5977 -9.54166e-015 -1.59028e-015 -7.95139e-016 0.565 -2.3158 0.4082 0 0 -3.97569e-016 -0.916 -9.2044 0.2193 -5.09296e-006 6.60979e-006 -9.92999e-006 -0.0117 -4.1944 -0.0248 0.0129948 0.00231403 -9.38951e-005 -0.0071 -2.3249 -0.0142 -7.72434e-032 1.11319e-014 3.97569e-016 -0.6113 -8.7231 -2.0637 -5.09296e-006 6.60979e-006 -9.92999e-006 0.1927 -3.8059 -0.2383 0.0163467 0.00302752 -0.000871227 0.1091 -2.1688 -0.1362 -2.11012e-007 3.57089e-006 6.77752e-006 0.6151 -8.0947 -3.564 -5.09296e-006 6.60979e-006 -9.92999e-006 0.4882 -2.341 -0.6462 0.0146097 0.00367576 -0.00326767 0.3574 -1.7166 -0.4742 3.18055e-015 3.18055e-015 3.97569e-016 1.4199 -1.8761 1.4221 -5.09296e-006 6.60979e-006 -9.92999e-006 1.1472 -3.4929 2.6336 -9.54166e-015 -1.59028e-015 -7.95139e-016 0.8229 -2.3 1.6571 0 0 -3.97569e-016 -9.412 3.9771 -0.7758 -52.5603 -45.7962 -2.93992 -0.7531 -40.938 1.77636e-015 178.473 67.684 178.601 0 -40.1986 3.55271e-015 -34.2327 25.2483 12.8253 0 -4.4182 9.239 1.065e-006 -1.49652e-006 -1.95237e-006 9.4119 3.9773 -0.7758 49.556 -10.0339 -5.2938 0.7532 -40.9383 -1.77636e-015 -49.3525 39.346 24.6529 1.42109e-014 -40.1986 0 19.0389 39.6682 15.9805 7.10543e-015 -4.4182 9.239 2.58234e-006 1.87435e-006 1.65722e-006 
40.0629 2.70343 7.96085 -179.982 -89.9981 -179.982 0 8.7983 -4.7612 -2.02424 15.8916 -1.24705 -7.10543e-015 8.0291 0.4195 -3.91289 31.816 -2.0054 7.10543e-015 9.9351 -2.2114 -3.91287 31.8159 -2.00539 0 22.3885 -0.4656 0.000144516 18.4926 0.000135882 -0.0001 12.643 3.4389 -1.17425e-007 4.99693 1.35179e-006 2.2603 21.606 7.4023 -12.5671 2.57905 -14.6834 13.5163 -1.1332 -5.0146 27.2494 -48.2247 37.07 -0.0995 -28.05 -0.2431 -3.11023 -5.39295 -17.9122 0.0679 -23.3996 -0.1402 1.90045 27.9641 -5.66799 0.7932 -9.069 2.5189 1.59028e-015 9.54166e-015 -0 -0.8272 -3.3923 0.5977 1.59028e-015 3.18055e-015 -0 -0.5649 -2.3158 0.4082 3.18055e-015 9.54166e-015 3.18055e-015 0.9159 -9.2044 0.2193 1.59028e-015 9.54166e-015 -0 0.0117 -4.1944 -0.0248 -0.0128739 0.00232615 8.14793e-005 0.0071 -2.3249 -0.0142 -1.59028e-015 -9.54166e-015 -0 0.6113 -8.7231 -2.0637 1.59028e-015 9.54166e-015 -0 -0.1927 -3.8059 -0.2383 -0.0160764 0.00298713 0.000855226 -0.1091 -2.1688 -0.1362 1.59028e-015 -3.18055e-015 -0 -0.6151 -8.0947 -3.5641 1.59028e-015 9.54166e-015 -0 -0.4882 -2.341 -0.6462 -0.0126741 0.00313324 0.00284282 -0.3575 -1.7167 -0.4742 7.95139e-015 -1.27222e-014 -0 -1.42 -1.8761 1.4223 1.59028e-015 9.54166e-015 -0 -1.1471 -3.4929 2.6334 1.59028e-015 3.18055e-015 -0 -0.823 -2.3 1.6571 3.18055e-015 9.54166e-015 3.18055e-015 -2.2603 21.606 7.4023 -1.02085 -9.58541 11.2674 -13.5187 -1.1334 -5.0155 -18.9177 -14.5782 16.9055 0.0994 -28.0499 -0.2431 92.3967 -49.4041 35.3046 -0.0679 -23.3996 -0.1402 -35.878 -14.9936 15.4856 -0.7932 -9.0691 2.5189 3.18055e-015 -1.59028e-015 7.95139e-016 0.8272 -3.3923 0.5977 3.18055e-015 -1.59028e-015 -3.97569e-016 0.565 -2.3158 0.4082 3.18055e-015 -2.38542e-015 -7.95139e-016 -0.916 -9.2044 0.2193 3.18055e-015 -1.59028e-015 7.95139e-016 -0.0117 -4.1944 -0.0248 0.0129156 0.00230161 -9.0285e-005 -0.0071 -2.3249 -0.0142 3.18055e-015 -7.95139e-016 -1.59028e-015 -0.6113 -8.7231 -2.0637 3.18055e-015 -1.59028e-015 7.95139e-016 0.1927 -3.8059 -0.2383 0.0163052 0.00303317 -0.000877131 0.1091 -2.1688 -0.1362 -0 0 1.59028e-015 0.6151 -8.0947 -3.564 3.18055e-015 -1.59028e-015 7.95139e-016 0.4882 -2.341 -0.6462 0.0145996 0.00367608 -0.00326782 0.3574 -1.7166 -0.4742 -3.18055e-015 3.18055e-015 -1.19271e-015 1.4199 -1.8761 1.4221 3.18055e-015 -1.59028e-015 7.95139e-016 1.1472 -3.4929 2.6336 3.18055e-015 -1.59028e-015 -3.97569e-016 0.8229 -2.3 1.6571 3.18055e-015 -2.38542e-015 -7.95139e-016 -9.412 3.9771 -0.7758 -48.5149 -42.6483 -2.45305 -0.7531 -40.938 1.77636e-015 177.675 75.201 179.691 3.55271e-015 -40.1986 -3.55271e-015 -31.6298 23.3592 11.8833 3.55271e-015 -4.4182 9.239 -3.18055e-015 -1.59028e-015 6.36111e-015 9.4119 3.9773 -0.7758 45.7511 -8.99273 -4.90455 0.7532 -40.9383 -8.88178e-016 -44.0081 36.6105 21.734 -1.42109e-014 -40.1986 7.10543e-015 18.7426 37.2518 14.2652 0 -4.4182 9.239 7.3485e-007 2.40537e-007 -2.8604e-006 
